<?xml version="1.0" encoding="UTF-8" standalone="no"?>
<!-- Created with Inkscape (http://www.inkscape.org/) -->

<svg
   width="48"
   height="48"
   viewBox="0 0 12.7 12.7"
   version="1.1"
   id="svg5"
   xml:space="preserve"
   inkscape:version="1.2 (dc2aedaf03, 2022-05-15)"
   sodipodi:docname="1.svg"
   xmlns:inkscape="http://www.inkscape.org/namespaces/inkscape"
   xmlns:sodipodi="http://sodipodi.sourceforge.net/DTD/sodipodi-0.dtd"
   xmlns="http://www.w3.org/2000/svg"
   xmlns:svg="http://www.w3.org/2000/svg"
   xmlns:rdf="http://www.w3.org/1999/02/22-rdf-syntax-ns#"
   xmlns:cc="http://creativecommons.org/ns#"><sodipodi:namedview
     id="namedview7"
     pagecolor="#ffffff"
     bordercolor="#000000"
     borderopacity="0.25"
     inkscape:showpageshadow="2"
     inkscape:pageopacity="0.0"
     inkscape:pagecheckerboard="0"
     inkscape:deskcolor="#d1d1d1"
     inkscape:document-units="mm"
     showgrid="false"
     inkscape:zoom="37.958333"
     inkscape:cx="24"
     inkscape:cy="21.892426"
     inkscape:window-width="3840"
     inkscape:window-height="2054"
     inkscape:window-x="-11"
     inkscape:window-y="-11"
     inkscape:window-maximized="1"
     inkscape:current-layer="layer1" /><defs
     id="defs2" /><g
     inkscape:label="Слой 1"
     inkscape:groupmode="layer"
     id="layer1"><g
       style="fill:currentColor"
       id="g184"
       transform="matrix(0.26458333,0,0,0.26458333,1.1454629,0.30204906)"><path
         d="m 10.5,8.5 a 2.5,2.5 0 1 1 -5,0 2.5,2.5 0 0 1 5,0 z"
         id="path172" /><path
         d="M 2,4 A 2,2 0 0 0 0,6 v 6 a 2,2 0 0 0 2,2 h 12 a 2,2 0 0 0 2,-2 V 6 A 2,2 0 0 0 14,4 H 12.828 A 2,2 0 0 1 11.414,3.414 L 10.586,2.586 A 2,2 0 0 0 9.172,2 H 6.828 A 2,2 0 0 0 5.414,2.586 L 4.586,3.414 A 2,2 0 0 1 3.172,4 Z m 0.5,2 a 0.5,0.5 0 1 1 0,-1 0.5,0.5 0 0 1 0,1 z m 9,2.5 a 3.5,3.5 0 1 1 -7,0 3.5,3.5 0 0 1 7,0 z"
         id="path174" /></g><g
       style="fill:currentColor"
       id="g257"
       transform="matrix(0.26458333,0,0,0.26458333,7.2445298,0.87065825)"><path
         d="M 4.355,0.522 A 0.5,0.5 0 0 1 4.978,0.855 L 5.269,1.811 A 4.979,4.979 0 0 1 8,1 c 1.007,0 1.946,0.298 2.731,0.811 l 0.29,-0.956 a 0.5,0.5 0 1 1 0.957,0.29 l -0.41,1.352 A 4.985,4.985 0 0 1 13,6 h 0.5 A 0.5,0.5 0 0 0 14,5.5 V 5 a 0.5,0.5 0 0 1 1,0 V 5.5 A 1.5,1.5 0 0 1 13.5,7 H 13 v 1 h 1.5 a 0.5,0.5 0 0 1 0,1 H 13 v 1 h 0.5 A 1.5,1.5 0 0 1 15,11.5 V 12 a 0.5,0.5 0 1 1 -1,0 V 11.5 A 0.5,0.5 0 0 0 13.5,11 H 13 A 5,5 0 0 1 3,11 H 2.5 A 0.5,0.5 0 0 0 2,11.5 V 12 A 0.5,0.5 0 1 1 1,12 V 11.5 A 1.5,1.5 0 0 1 2.5,10 H 3 V 9 H 1.5 a 0.5,0.5 0 0 1 0,-1 H 3 V 7 H 2.5 A 1.5,1.5 0 0 1 1,5.5 V 5 A 0.5,0.5 0 0 1 2,5 V 5.5 A 0.5,0.5 0 0 0 2.5,6 H 3 C 3,4.636 3.547,3.399 4.432,2.497 L 4.022,1.145 A 0.5,0.5 0 0 1 4.355,0.522 Z M 4,7 v 4 a 4,4 0 0 0 3.5,3.97 V 7 Z m 4.5,0 v 7.97 A 4,4 0 0 0 12,11 V 7 Z M 12,6 A 3.989,3.989 0 0 0 10.666,3.018 3.983,3.983 0 0 0 8,2 3.983,3.983 0 0 0 5.333,3.018 3.989,3.989 0 0 0 4,6 Z"
         id="path248" /></g><g
       style="fill:currentColor"
       id="g328"
       transform="matrix(0.26458333,0,0,0.26458333,7.4257592,7.0772412)"><path
         d="M 6,3 A 3,3 0 1 1 0,3 3,3 0 0 1 6,3 Z M 1,3 A 2,2 0 1 0 5,3 2,2 0 0 0 1,3 Z"
         id="path313" /><path
         d="m 9,6 h 0.5 a 2,2 0 0 1 1.983,1.738 l 3.11,-1.382 A 1,1 0 0 1 16,7.269 v 7.462 a 1,1 0 0 1 -1.406,0.913 L 11.483,14.262 A 2,2 0 0 1 9.5,16 H 2 A 2,2 0 0 1 0,14 V 8 A 2,2 0 0 1 2,6 Z m 6,8.73 V 7.27 l -3.5,1.555 v 4.35 L 15,14.731 Z M 1,8 v 6 a 1,1 0 0 0 1,1 h 7.5 a 1,1 0 0 0 1,-1 V 8 A 1,1 0 0 0 9.5,7 H 2 A 1,1 0 0 0 1,8 Z"
         id="path315" /><path
         d="M 9,6 A 3,3 0 1 0 9,0 3,3 0 0 0 9,6 Z M 7,3 a 2,2 0 1 1 4,0 2,2 0 0 1 -4,0 z"
         id="path317" /></g><g
       style="fill:currentColor"
       id="g357"
       transform="matrix(0.26458333,0,0,0.26458333,1.3343403,7.258206)"><path
         d="M 8.515,1.019 A 7,7 0 0 0 8,1 V 0 a 8,8 0 0 1 0.589,0.022 z m 2.004,0.45 A 7.003,7.003 0 0 0 9.534,1.17 L 9.753,0.194 c 0.383,0.086 0.76,0.2 1.126,0.342 z m 1.37,0.71 A 7.01,7.01 0 0 0 11.45,1.909 l 0.493,-0.87 a 8.025,8.025 0 0 1 0.979,0.654 L 12.307,2.482 A 6.996,6.996 0 0 0 11.889,2.18 Z m 1.834,1.79 A 6.99,6.99 0 0 0 13.07,3.173 l 0.724,-0.69 c 0.27,0.285 0.52,0.59 0.747,0.91 z m 0.744,1.352 A 7.08,7.08 0 0 0 14.253,4.853 l 0.893,-0.45 a 7.976,7.976 0 0 1 0.45,1.088 l -0.95,0.313 A 7.023,7.023 0 0 0 14.467,5.321 Z m 0.53,2.507 a 6.991,6.991 0 0 0 -0.1,-1.025 l 0.985,-0.17 c 0.067,0.386 0.106,0.778 0.116,1.17 l -1,0.025 z m -0.131,1.538 c 0.033,-0.17 0.06,-0.339 0.081,-0.51 l 0.993,0.123 a 7.957,7.957 0 0 1 -0.23,1.155 L 14.746,9.867 c 0.046,-0.165 0.086,-0.332 0.12,-0.501 z m -0.952,2.379 c 0.184,-0.29 0.346,-0.594 0.486,-0.908 l 0.914,0.405 c -0.16,0.36 -0.345,0.706 -0.555,1.038 z M 12.95,12.95 c 0.122,-0.122 0.239,-0.248 0.35,-0.378 l 0.758,0.653 a 8.073,8.073 0 0 1 -0.401,0.432 z"
         id="path342" /><path
         d="m 8,1 a 7,7 0 1 0 4.95,11.95 l 0.707,0.707 A 8.001,8.001 0 1 1 8,0 Z"
         id="path344" /><path
         d="M 7.5,3 A 0.5,0.5 0 0 1 8,3.5 v 5.21 l 3.248,1.856 a 0.5,0.5 0 0 1 -0.496,0.868 l -3.5,-2 A 0.5,0.5 0 0 1 7,9 V 3.5 A 0.5,0.5 0 0 1 7.5,3 Z"
         id="path346" /></g></g><metadata
     id="metadata142"><rdf:RDF><cc:License
         rdf:about="http://artlibre.org/licence/lal"><cc:permits
           rdf:resource="http://creativecommons.org/ns#Reproduction" /><cc:permits
           rdf:resource="http://creativecommons.org/ns#Distribution" /><cc:permits
           rdf:resource="http://creativecommons.org/ns#DerivativeWorks" /><cc:requires
           rdf:resource="http://creativecommons.org/ns#ShareAlike" /><cc:requires
           rdf:resource="http://creativecommons.org/ns#Notice" /><cc:requires
           rdf:resource="http://creativecommons.org/ns#Attribution" /></cc:License><cc:Work
         rdf:about=""><cc:license
           rdf:resource="http://artlibre.org/licence/lal" /></cc:Work></rdf:RDF></metadata></svg>
